<svg id="Layer_1" height="512" viewBox="0 0 512 512" width="512" xmlns="http://www.w3.org/2000/svg" data-name="Layer 1"><path d="m357.26 454.92a22.523 22.523 0 1 1 -2.77.17 21.566 21.566 0 0 1 2.77-.17z" fill="#e87187"/><path d="m278.36 475.7a22.531 22.531 0 1 1 -25.13-19.59 21.677 21.677 0 0 1 2.77-.17 22.531 22.531 0 0 1 22.36 19.76z" fill="#f3ce7d"/><path d="m482.02 475.7a22.526 22.526 0 1 1 -25.12-19.59 22.529 22.529 0 0 1 25.12 19.59z" fill="#f3ce7d"/><circle cx="154.74" cy="478.47" fill="#e87187" r="22.53"/><circle cx="52.33" cy="478.47" fill="#f3ce7d" r="22.53"/><path d="m467.08 174.6v65.17c0 18.87-42.25 34.15-94.39 34.15s-94.38-15.28-94.38-34.15v-65.17c0 18.87 42.25 34.16 94.38 34.16s94.39-15.29 94.39-34.16z" fill="#4ca987"/><path d="m467.08 45.16v64.72c0 18.87-42.25 34.16-94.39 34.16s-94.38-15.29-94.38-34.16v-64.72c0 18.86 42.26 34.16 94.38 34.16s94.39-15.3 94.39-34.16z" fill="#4ca987"/><path d="m372.5 144.04c-52.13 0-94.495-15.29-94.495-34.16v64.72c0 18.87 42.365 34.16 94.5 34.16s94.495-15.29 94.495-34.16v-64.72c0 18.87-42.365 34.16-94.5 34.16z" fill="#5fcda4"/><path d="m372.69 11c52.13 0 94.39 15.29 94.39 34.16s-42.26 34.16-94.39 34.16-94.38-15.3-94.38-34.16 42.26-34.16 94.38-34.16z" fill="#5fcda4"/><ellipse cx="139.31" cy="45.16" fill="#5fa8ed" rx="94.38" ry="34.16"/><path d="m233.69 174.6v65.17c0 18.87-42.25 34.15-94.38 34.15s-94.38-15.28-94.38-34.15v-65.17c0 18.87 42.24 34.16 94.38 34.16s94.38-15.29 94.38-34.16z" fill="#4689d3"/><path d="m233.69 45.16v64.72c0 18.87-42.25 34.16-94.38 34.16s-94.38-15.29-94.38-34.16v-64.72c0 18.86 42.25 34.16 94.38 34.16s94.38-15.3 94.38-34.16z" fill="#4689d3"/><path d="m139.5 144.04c-52.14 0-94.5-15.29-94.5-34.16v64.72c0 18.87 42.36 34.16 94.5 34.16s94.5-15.29 94.5-34.16v-64.72c0 18.87-42.37 34.16-94.5 34.16z" fill="#5fa8ed"/><circle cx="427.45" cy="104.07" fill="#b0b5ca" r="8.58"/><circle cx="427.45" cy="231.59" fill="#b0b5ca" r="8.58"/><circle cx="427.45" cy="167.83" fill="#b0b5ca" r="8.58"/><circle cx="194.07" cy="231.59" fill="#b0b5ca" r="8.58"/><circle cx="194.07" cy="167.83" fill="#b0b5ca" r="8.58"/><circle cx="194.07" cy="104.07" fill="#b0b5ca" r="8.58"/><path d="m74.93 45.16c0-17.022 34.381-31.129 79.38-33.729q-7.329-.423-15-.431c-52.13 0-94.38 15.29-94.38 34.16s42.25 34.16 94.38 34.16q7.659 0 15-.431c-44.999-2.602-79.38-16.716-79.38-33.729z" fill="#5594c6"/><path d="m75 239.77v-40.17c-18.5-6.236-30-15.129-30-25v65.17c0 18.87 42.205 34.15 94.345 34.15q7.707 0 15.075-.436c-44.979-2.613-79.42-16.704-79.42-33.714z" fill="#4077a8"/><path d="m45 45.16v64.72c0 9.874 11.5 18.767 30 25v-64.722c-18.5-6.238-30-15.13-30-24.998z" fill="#4077a8"/><path d="m45 109.88v64.72c0 9.874 11.5 18.767 30 25v-64.72c-18.5-6.233-30-15.126-30-25z" fill="#5594c6"/><g fill="#284268"><path d="m477.373 455.973a28.736 28.736 0 0 0 -11.373-5.4v-46.639a22.24 22.24 0 0 0 -22.223-21.934h-181.777v-55h99.851a22.093 22.093 0 0 0 22.149-21.837v-25.5c44.987-2.026 89-15.864 89-39.9v-194.605c0-26.084-51.837-40.158-100.5-40.158s-100.5 14.074-100.5 40.158v194.609c0 25.994 51.482 40.059 100 40.155v25.241a10.081 10.081 0 0 1 -10.149 9.837h-211.7a10.081 10.081 0 0 1 -10.151-9.837v-25.241c48.518-.1 100-14.161 100-40.155v-194.734c0-26.083-51.837-40.095-100.5-40.095s-100.5 14.136-100.5 40.22v194.609c0 24.034 44.013 37.872 89 39.9v25.5a22.093 22.093 0 0 0 22.149 21.833h99.851v55h-181.777a22.24 22.24 0 0 0 -22.223 21.934v46.647a28.287 28.287 0 0 0 -22.363 27.89 28.509 28.509 0 1 0 34.363-27.89v-46.647a10.229 10.229 0 0 1 10.223-9.934h80.777v56.581a28.432 28.432 0 1 0 12 0v-56.581h89v56.585a28.528 28.528 0 0 0 5.942 56.415 28.922 28.922 0 0 0 3.564-.221 28.535 28.535 0 0 0 2.494-56.207v-56.572h89v55.563a28.711 28.711 0 0 0 -22.181 31.389 28.658 28.658 0 0 0 28.35 25.026 29.167 29.167 0 0 0 3.58-.221 28.47 28.47 0 0 0 24.684-31.817 28.137 28.137 0 0 0 -22.433-24.377v-55.563h80.777a10.229 10.229 0 0 1 10.223 9.934v46.651a27.367 27.367 0 0 0 -16.664 10.346 28.459 28.459 0 0 0 22.293 46.069 28.636 28.636 0 0 0 28.437-32.037 28.239 28.239 0 0 0 -10.693-18.99zm-104.68-438.973c54.759 0 88.383 16.4 88.383 28.158s-33.624 28.157-88.383 28.157-88.383-16.4-88.383-28.157 33.624-28.158 88.383-28.158zm-88.693 47.978c18 13.315 54.129 20.337 88.5 20.337s70.5-7.022 88.5-20.337v44.9c0 11.758-33.741 28.158-88.5 28.158s-88.5-16.4-88.5-28.158zm0 64.72c18 13.314 54.129 20.337 88.5 20.337s70.5-7.022 88.5-20.335v44.9c0 11.757-33.741 28.157-88.5 28.157s-88.5-16.402-88.5-28.157zm0 110.069v-45.349c18 13.315 54.129 20.337 88.5 20.337s70.5-7.022 88.5-20.337v45.349c0 11.757-33.741 28.157-88.5 28.157s-88.5-16.4-88.5-28.157zm-56-129.709c0 .02-.158.039-.158.059-.451 11.74-34 27.918-88.387 27.918a238.778 238.778 0 0 1 -33.656-2.282 5.959 5.959 0 0 0 -1.664 11.8 252.09 252.09 0 0 0 35.4 2.48c34.344 0 70.463-7.012 88.463-20.306v44.873c0 11.757-33.741 28.157-88.5 28.157s-88.498-16.402-88.498-28.157v-44.975a75.235 75.235 0 0 0 9.475 5.7 5.927 5.927 0 0 0 8.525-5.361v-.076a5.949 5.949 0 0 0 -3.338-5.345c-9.723-4.733-14.577-10.009-14.63-14.591l-.032-44.974c18 13.315 54.129 20.337 88.5 20.337s70.5-7.022 88.5-20.337zm-88.69-93.058c54.759 0 88.383 16.4 88.383 28.158s-33.624 28.157-88.383 28.157-88.384-16.4-88.384-28.157 33.624-28.158 88.384-28.158zm-88.31 222.767v-45.349c18 13.315 54.129 20.337 88.5 20.337s70.5-7.022 88.5-20.337v45.349c0 11.757-33.741 28.157-88.5 28.157s-88.5-16.4-88.5-28.157zm17.863 238.7a16.53 16.53 0 1 1 -16.53-16.53 16.548 16.548 0 0 1 16.53 16.534zm102.407 0a16.53 16.53 0 1 1 -16.53-16.53 16.549 16.549 0 0 1 16.53 16.534zm94.892-13.034a16.527 16.527 0 1 1 -12.193-3.368 16.711 16.711 0 0 1 2.065-.128 16.4 16.4 0 0 1 10.128 3.5zm107.5 9.978a16.521 16.521 0 1 1 -16.39-14.5 16.546 16.546 0 0 1 16.39 14.504zm88.038 19.461a16.527 16.527 0 1 1 -4.062-32.8 16.711 16.711 0 0 1 2.065-.128 16.528 16.528 0 0 1 2 32.931z"/><path d="m106.763 103.432a6 6 0 0 0 -6.813 5.846 6.151 6.151 0 0 0 5.4 6.073 253.494 253.494 0 0 0 33.958 2.22 259.046 259.046 0 0 0 27.11-1.4 6.149 6.149 0 0 0 5.561-6.453 6 6 0 0 0 -6.618-5.5 246.927 246.927 0 0 1 -26.053 1.351 241.116 241.116 0 0 1 -32.545-2.137z"/><path d="m194.07 118.65a14.58 14.58 0 1 0 -14.58-14.58 14.6 14.6 0 0 0 14.58 14.58zm0-17.16a2.58 2.58 0 1 1 -2.58 2.58 2.582 2.582 0 0 1 2.58-2.58z"/><path d="m105.137 179.083a253.11 253.11 0 0 0 34.173 2.25 259.174 259.174 0 0 0 27.324-1.418 6 6 0 0 0 -1.271-11.933 246.927 246.927 0 0 1 -26.053 1.351 241.171 241.171 0 0 1 -32.547-2.139 6 6 0 0 0 -1.626 11.889z"/><path d="m194.07 182.413a14.581 14.581 0 1 0 -14.58-14.581 14.6 14.6 0 0 0 14.58 14.581zm0-17.161a2.581 2.581 0 1 1 -2.58 2.58 2.582 2.582 0 0 1 2.58-2.58z"/><path d="m165.364 231.745a247.341 247.341 0 0 1 -26.054 1.355 241.168 241.168 0 0 1 -32.547-2.14 6 6 0 0 0 -1.626 11.89 253.273 253.273 0 0 0 34.173 2.25 259.03 259.03 0 0 0 27.324-1.419 6 6 0 0 0 -1.27-11.932z"/><path d="m194.07 217.014a14.58 14.58 0 1 0 14.58 14.58 14.6 14.6 0 0 0 -14.58-14.58zm0 17.16a2.58 2.58 0 1 1 2.58-2.58 2.582 2.582 0 0 1 -2.58 2.58z"/><path d="m338.521 115.322a253.369 253.369 0 0 0 34.172 2.249 259.193 259.193 0 0 0 27.325-1.418 6 6 0 0 0 -1.271-11.933 246.932 246.932 0 0 1 -26.054 1.351 241.1 241.1 0 0 1 -32.546-2.139 6 6 0 0 0 -1.626 11.89z"/><path d="m427.454 118.65a14.58 14.58 0 1 0 -14.581-14.58 14.6 14.6 0 0 0 14.581 14.58zm0-17.16a2.58 2.58 0 1 1 -2.581 2.58 2.583 2.583 0 0 1 2.581-2.58z"/><path d="m338.521 179.083a253.1 253.1 0 0 0 34.172 2.25 259.193 259.193 0 0 0 27.325-1.418 6 6 0 0 0 -1.271-11.933 246.932 246.932 0 0 1 -26.054 1.351 241.167 241.167 0 0 1 -32.546-2.139 6 6 0 0 0 -1.626 11.889z"/><path d="m427.454 182.413a14.581 14.581 0 1 0 -14.581-14.581 14.6 14.6 0 0 0 14.581 14.581zm0-17.161a2.581 2.581 0 1 1 -2.581 2.58 2.583 2.583 0 0 1 2.581-2.58z"/><path d="m400.017 243.677a6 6 0 1 0 -1.27-11.932 247.327 247.327 0 0 1 -26.054 1.351 241.164 241.164 0 0 1 -32.546-2.14 6 6 0 0 0 -1.626 11.89 253.258 253.258 0 0 0 34.172 2.25 259.016 259.016 0 0 0 27.324-1.419z"/><path d="m427.454 246.174a14.58 14.58 0 1 0 -14.581-14.58 14.6 14.6 0 0 0 14.581 14.58zm0-17.16a2.58 2.58 0 1 1 -2.581 2.58 2.583 2.583 0 0 1 2.581-2.58z"/></g></svg>