<svg height="511pt" viewBox="-5 1 511 511.99898" width="511pt" xmlns="http://www.w3.org/2000/svg"><path d="m501.257812 261.617188c0 121.160156-86.058593 222.21875-200.386718 245.382812-16.15625 3.273438-32.871094 3.972656-49.992188 3.972656-17.902344 0-35.367187-.859375-52.207031-4.429687-16.90625-3.585938-33.179687-8.878907-48.632813-15.6875-18.425781-8.113281-35.6875-19.410157-51.464843-31.515625-19.191407-14.730469-36.1875-31.15625-50.414063-50.746094-29.980468-41.273438-47.660156-92.058594-47.660156-146.976562 0-138.28125 112.097656-250.375 250.378906-250.375s250.378906 112.09375 250.378906 250.375zm0 0" fill="#c0fbff"/><path d="m129.605469 210.078125h-61.316407c-11.289062 0-20.4375-9.152344-20.4375-20.441406l46.761719-74.820313c2.003907-3.203125 6.667969-3.203125 8.667969 0l46.765625 74.820313c0 11.289062-9.152344 20.441406-20.441406 20.441406zm0 0" fill="#ffe49f"/><path d="m129.605469 210.078125h-26.570313c-11.289062 0-20.4375-9.152344-20.4375-20.441406l33.722656-53.957031 33.726563 53.957031c0 11.289062-9.152344 20.441406-20.441406 20.441406zm0 0" fill="#fff5f5"/><path d="m150.046875 404.246094h-102.195313v-214.609375h102.195313zm0 0" fill="#ffcf48"/><path d="m82.597656 404.246094h-34.746094v-214.609375h34.746094zm0 0" fill="#fa0"/><path d="m76.953125 143.070312 17.660156-28.253906c2-3.203125 6.664063-3.203125 8.667969 0l17.660156 28.253906zm0 0" fill="#024c67"/><path d="m150.046875 408.507812v82.351563c-40.835937-17.988281-75.949219-46.585937-101.875-82.277344-4.695313-.921875-8.242187-5.054687-8.242187-10.023437 0-5.644532 4.574218-10.21875 10.21875-10.21875h97.597656c5.644531 0 10.21875 4.574218 10.21875 10.21875 0 4.851562-3.386719 8.90625-7.917969 9.949218zm0 0" fill="#7ed4f2"/><path d="m82.597656 447.007812c-12.75-11.574218-24.3125-24.46875-34.453125-38.429687-4.882812-.957031-8.492187-5.382813-8.199219-10.609375.308594-5.464844 5.058594-9.628906 10.535157-9.628906h32.117187c-5.644531 0-10.21875 4.574218-10.21875 10.21875 0 3.757812 2.027344 7.039062 5.046875 8.816406 3.167969 1.863281 5.171875 5.203125 5.171875 8.878906zm0 0" fill="#50b0d6"/><path d="m434.585938 130.515625-8.390626 4.847656v201.878907c0 .96875-.785156 1.757812-1.757812 1.757812h-43.253906c-.972656 0-1.761719-.785156-1.761719-1.757812v-201.878907l-8.386719-4.847656c-9.609375-5.546875-13.832031-17.207031-10.003906-27.621094l36.425781-99.15625c1.828125-4.984375 8.875-4.984375 10.707031 0l36.425782 99.15625c3.824218 10.414063-.394532 22.074219-10.003906 27.621094zm-151.8125-78.632813c-4.007813-2.261718-8.972657.628907-8.972657 5.230469v58.195313c0 13.027344-10.132812 24.121094-23.152343 24.585937-13.667969.488281-24.902344-10.449219-24.902344-24.011719v-58.769531c0-4.601562-4.964844-7.492187-8.976563-5.230469-20.457031 11.535157-34.273437 33.457032-34.273437 58.617188v10.1875c0 28.929688 18.265625 53.589844 43.890625 63.09375v325.429688c0 .972656.789062 1.761718 1.757812 1.761718h43.257813c.96875 0 1.757812-.789062 1.757812-1.761718v-325.429688c25.625-9.503906 43.890625-34.164062 43.890625-63.09375v-10.1875c-.003906-25.160156-13.820312-47.082031-34.277343-58.617188zm0 0" fill="#50b0d6"/><path d="m317.046875 110.5v9.179688c0 29.058593-18.167969 54.304687-43.886719 64.023437v103.203125c0 6.59375-5.160156 12.253906-11.753906 12.375-6.71875.121094-12.203125-5.285156-12.203125-11.976562v-85.566407c0-7.316406-5.171875-13.636719-12.355469-15.03125-11.082031-2.152343-21.195312-7.019531-29.609375-13.898437-10.742187-8.777344-11.441406-24.972656-1.632812-34.78125 8.148437-8.148438 20.933593-9.117188 30.355469-2.480469 3.964843 2.789063 8.8125 4.410156 14.042968 4.363281 13.09375-.125 23.792969-11.511718 23.792969-24.605468 0-15.96875 0-43.699219 0-58.195313 0-4.570313 4.921875-7.507813 8.902344-5.269531 20.496093 11.527344 34.347656 33.472656 34.347656 58.660156zm127.542969-7.605469-36.425782-99.160156c-.996093-2.703125-3.523437-3.925781-5.925781-3.6953125v236.1679685c0 6.613281 5.363281 11.976563 11.980469 11.976563 6.613281 0 11.976562-5.363282 11.976562-11.976563v-100.847656l8.390626-4.84375c9.609374-5.546875 13.828124-17.207031 10.003906-27.621094zm0 0" fill="#7ed4f2"/><path d="m87.195312 429.214844v20.441406c0 .457031-.042968.890625-.097656 1.332031-7.148437-6.1875-13.933594-12.753906-20.339844-19.703125v-2.070312c0-5.644532 4.574219-10.21875 10.21875-10.21875 5.640626 0 10.21875 4.574218 10.21875 10.21875zm33.722657-10.21875c-5.644531 0-10.21875 4.574218-10.21875 10.21875v20.441406c0 5.644531 4.574219 10.21875 10.21875 10.21875s10.222656-4.574219 10.222656-10.21875v-20.441406c0-5.644532-4.578125-10.21875-10.222656-10.21875zm0 0" fill="#08c"/><path d="m451.609375 298.855469h-5.515625c4.855469 5.425781 7.8125 12.585937 7.8125 20.4375v88.875c-25.953125 35.902343-61.1875 64.617187-102.195312 82.679687v-171.554687c0-7.851563 2.957031-15.011719 7.8125-20.4375h-5.511719c-5.644531 0-10.21875-4.574219-10.21875-10.21875s4.574219-10.21875 10.21875-10.21875h97.597656c5.644531 0 10.21875 4.574219 10.21875 10.21875s-4.574219 10.21875-10.21875 10.21875zm-153.039063 30.660156h-97.597656c-5.644531 0-10.21875 4.574219-10.21875 10.21875s4.574219 10.21875 10.21875 10.21875h5.515625c-4.859375 5.425781-7.8125 12.585937-7.8125 20.441406v136.140625c16.839844 3.570313 34.296875 5.464844 52.203125 5.464844 17.121094 0 33.835938-1.722656 49.992188-5v-136.609375c0-7.851563-2.957032-15.011719-7.8125-20.4375h5.511718c5.644532 0 10.21875-4.574219 10.21875-10.21875s-4.574218-10.21875-10.21875-10.21875zm0 0" fill="#ff895a"/><path d="m223.199219 339.746094c0 3.753906 2.03125 7.039062 5.050781 8.8125 3.167969 1.863281 5.171875 5.203125 5.171875 8.878906v153.957031c-11.828125-.816406-23.429687-2.449219-34.746094-4.851562v-136.140625c0-7.855469 2.953125-15.015625 7.8125-20.441406h-5.515625c-5.867187 0-10.582031-4.945313-10.195312-10.898438.351562-5.433594 5.105468-9.539062 10.546875-9.539062h32.097656c-5.644531 0-10.222656 4.578124-10.222656 10.222656zm158.742187-44.136719c-3.285156-2.25-5.703125-4.761719-5.703125-6.964844 0-5.640625 4.578125-10.21875 10.222657-10.21875h-32.097657c-5.445312 0-10.199219 4.109375-10.550781 9.539063-.382812 5.953125 4.328125 10.902344 10.199219 10.902344h5.511719c-4.855469 5.421874-7.8125 12.585937-7.8125 20.4375v171.554687c12.117187-5.335937 23.730468-11.597656 34.746093-18.707031v-168.066406c0-3.402344-1.710937-6.554688-4.515625-8.476563zm0 0" fill="#ff6466"/><path d="m238.019531 380.605469v131.0625c-6.890625-.347657-13.707031-.976563-20.4375-1.871094v-129.191406c0-5.644531 4.574219-10.21875 10.21875-10.21875s10.21875 4.574219 10.21875 10.21875zm33.722657-10.21875c-5.640626 0-10.21875 4.574219-10.21875 10.21875v131.164062c6.890624-.285156 13.707031-.855469 20.441406-1.691406v-129.472656c0-5.644531-4.578125-10.21875-10.222656-10.21875zm153.039062-51.097657c-5.644531 0-10.21875 4.574219-10.21875 10.21875v121.574219c7.183594-6.210937 14.003906-12.832031 20.4375-19.816406v-101.757813c0-5.644531-4.574219-10.21875-10.21875-10.21875zm-43.945312 0c-5.640626 0-10.21875 4.574219-10.21875 10.21875v152.046876c7.023437-3.832032 13.84375-7.988282 20.441406-12.453126v-139.59375c0-5.644531-4.578125-10.21875-10.222656-10.21875zm0 0" fill="#ff393a"/></svg>